<svg width="170" height="45" viewBox="0 0 170 45" fill="none" xmlns="http://www.w3.org/2000/svg">
<path d="M6.77107 23.724C4.54253 22.2855 1.08794 20.0546 0.894956 19.926L0.885818 19.9202C0.524253 19.6918 0.0523112 19.956 0.0560557 20.3836C0.0658778 21.5053 0.0698031 23.1984 0.0437561 24.9436C0.00848607 27.3066 2.19749 27.1446 3.34876 26.7546C3.38584 26.7421 3.42049 26.7251 3.45367 26.7043L6.76402 24.6308C7.09764 24.4218 7.10181 23.9375 6.77107 23.724Z" fill="#9A5CF1"/>
<path d="M6.72737 11.8076C4.49882 10.3691 1.04423 8.13819 0.851255 8.00954L0.842117 8.00377C0.480552 7.77541 0.00860998 8.03958 0.0123545 8.4672C0.0221766 9.58889 0.0261019 11.282 5.4883e-05 13.0271C-0.0352151 15.3902 2.15379 15.2282 3.30506 14.8382C3.34214 14.8257 3.37679 14.8087 3.40997 14.7879L6.72032 12.7144C7.05393 12.5054 7.05811 12.0211 6.72737 11.8076Z" fill="#9A5CF1"/>
<path d="M-0.000366211 37.6209C-0.000366211 37.7657 0.0696301 37.9016 0.187536 37.9857L8.28663 43.7608C8.43724 43.8682 8.63838 43.872 8.79292 43.7703L23.1834 34.3048C23.3094 34.2219 23.3852 34.0813 23.3852 33.9305V28.5346C23.3852 28.1817 22.9962 27.9673 22.6978 28.1559L8.82288 36.9271C8.67586 37.02 8.48834 37.0195 8.34187 36.9257L0.689256 32.0244C0.39107 31.8334 -0.000366211 32.0475 -0.000366211 32.4016V37.6209Z" fill="#6A0FEA"/>
<path fill-rule="evenodd" clip-rule="evenodd" d="M4.1272 27.7848C3.55396 28.0505 2.95144 28.0935 2.6875 28.0796L3.76092 28.7594C3.78332 28.7796 3.80786 28.7982 3.83452 28.8151L8.40051 31.7044C8.57714 31.8161 8.80253 31.8154 8.97842 31.7025L28.0885 19.4332C30.808 17.8015 34.3012 13.5128 34.4299 9.30392C34.4423 8.89912 33.9961 8.67707 33.656 8.89702L5.86767 26.87C5.65436 26.99 5.40932 27.1139 5.1467 27.2468C4.82459 27.4097 4.47604 27.586 4.1272 27.7848Z" fill="#6A0FEA"/>
<path fill-rule="evenodd" clip-rule="evenodd" d="M3.84696 15.407C3.85327 15.4028 3.85967 15.3987 3.86615 15.3947C9.85276 11.6649 21.1896 4.60035 26.2054 1.46968C31.0634 -1.56252 33.5214 0.736797 34.3416 2.66075C34.4795 2.98418 34.3383 3.34781 34.0442 3.54046L9.39091 19.6881C9.12682 19.8611 8.78608 19.8641 8.51902 19.6957L3.86347 16.7607C3.8385 16.7449 3.81477 16.7282 3.79228 16.7105L2.46191 15.8951C2.66198 15.8951 3.21941 15.7664 3.84696 15.407Z" fill="#6A0FEA"/>
<path d="M51.9552 35.9396V11.5032H61.5961C63.4495 11.5032 65.0285 11.8572 66.333 12.5651C67.6375 13.2651 68.6319 14.2396 69.316 15.4884C70.008 16.7293 70.354 18.1612 70.354 19.7839C70.354 21.4066 70.004 22.8384 69.304 24.0793C68.604 25.3203 67.5898 26.2867 66.2614 26.9788C64.941 27.6708 63.3421 28.0168 61.4648 28.0168H55.3199V23.8765H60.6296C61.6239 23.8765 62.4432 23.7055 63.0875 23.3634C63.7398 23.0134 64.225 22.5322 64.5432 21.9197C64.8694 21.2992 65.0324 20.5873 65.0324 19.7839C65.0324 18.9725 64.8694 18.2646 64.5432 17.66C64.225 17.0475 63.7398 16.5742 63.0875 16.2401C62.4353 15.8981 61.608 15.7271 60.6057 15.7271H57.1216V35.9396H51.9552ZM78.6973 11.5032V35.9396H73.6144V11.5032H78.6973ZM87.9952 36.2856C86.8259 36.2856 85.7839 36.0828 84.8691 35.6771C83.9543 35.2634 83.2304 34.6549 82.6975 33.8515C82.1725 33.0401 81.91 32.0299 81.91 30.8208C81.91 29.8026 82.0969 28.9475 82.4708 28.2555C82.8447 27.5634 83.3537 27.0066 83.9981 26.585C84.6424 26.1634 85.3742 25.8453 86.1935 25.6305C87.0208 25.4157 87.8878 25.2646 88.7947 25.1771C89.8606 25.0657 90.7197 24.9623 91.3719 24.8668C92.0242 24.7634 92.4975 24.6123 92.7918 24.4134C93.0861 24.2146 93.2333 23.9203 93.2333 23.5305V23.4589C93.2333 22.7032 92.9947 22.1186 92.5174 21.7049C92.0481 21.2913 91.3799 21.0845 90.5128 21.0845C89.5981 21.0845 88.8702 21.2873 88.3293 21.693C87.7884 22.0907 87.4304 22.5918 87.2554 23.1964L82.5543 22.8146C82.7929 21.7009 83.2623 20.7384 83.9623 19.9271C84.6623 19.1078 85.5651 18.4793 86.6708 18.0418C87.7844 17.5964 89.0731 17.3737 90.5367 17.3737C91.5549 17.3737 92.5293 17.493 93.46 17.7316C94.3986 17.9703 95.2299 18.3401 95.9537 18.8413C96.6856 19.3424 97.2623 19.9867 97.6839 20.7742C98.1054 21.5538 98.3162 22.4884 98.3162 23.5782V35.9396H93.4958V33.3981H93.3526C93.0583 33.9708 92.6645 34.4759 92.1714 34.9134C91.6782 35.343 91.0856 35.6811 90.3935 35.9276C89.7015 36.1663 88.902 36.2856 87.9952 36.2856ZM89.4509 32.7776C90.1986 32.7776 90.8589 32.6305 91.4316 32.3362C92.0043 32.0339 92.4537 31.6282 92.7799 31.1191C93.106 30.61 93.2691 30.0333 93.2691 29.389V27.4441C93.11 27.5475 92.8912 27.643 92.6128 27.7305C92.3424 27.81 92.0361 27.8856 91.6941 27.9572C91.352 28.0208 91.01 28.0805 90.6679 28.1362C90.3259 28.1839 90.0157 28.2276 89.7373 28.2674C89.1407 28.3549 88.6197 28.4941 88.1742 28.685C87.7287 28.8759 87.3827 29.1345 87.1361 29.4606C86.8895 29.7788 86.7662 30.1765 86.7662 30.6538C86.7662 31.3458 87.0168 31.8748 87.5179 32.2407C88.027 32.5987 88.6714 32.7776 89.4509 32.7776ZM107.343 25.3441V35.9396H102.26V17.6123H107.104V20.8458H107.319C107.724 19.7799 108.405 18.9367 109.359 18.3163C110.314 17.6879 111.471 17.3737 112.831 17.3737C114.104 17.3737 115.214 17.6521 116.16 18.2089C117.107 18.7657 117.843 19.5612 118.368 20.5953C118.893 21.6214 119.155 22.8464 119.155 24.2703V35.9396H114.072V25.1771C114.08 24.0555 113.794 23.1805 113.213 22.5521C112.632 21.9157 111.833 21.5975 110.815 21.5975C110.131 21.5975 109.526 21.7447 109.001 22.039C108.484 22.3333 108.078 22.7629 107.784 23.3276C107.498 23.8845 107.351 24.5566 107.343 25.3441Z" fill="#6A0FEA"/>
<path d="M123.161 35.9396V17.6123H128.244V35.9396H123.161ZM125.715 15.2498C124.959 15.2498 124.311 14.9992 123.77 14.4981C123.237 13.989 122.97 13.3805 122.97 12.6725C122.97 11.9725 123.237 11.372 123.77 10.8708C124.311 10.3617 124.959 10.1072 125.715 10.1072C126.47 10.1072 127.115 10.3617 127.648 10.8708C128.189 11.372 128.459 11.9725 128.459 12.6725C128.459 13.3805 128.189 13.989 127.648 14.4981C127.115 14.9992 126.47 15.2498 125.715 15.2498ZM140.597 36.2975C138.719 36.2975 137.105 35.8998 135.752 35.1043C134.408 34.3009 133.374 33.1873 132.65 31.7634C131.934 30.3396 131.576 28.7009 131.576 26.8475C131.576 24.9703 131.938 23.3237 132.662 21.9078C133.394 20.4839 134.432 19.3742 135.776 18.5788C137.12 17.7754 138.719 17.3737 140.573 17.3737C142.172 17.3737 143.572 17.664 144.773 18.2447C145.974 18.8254 146.924 19.6407 147.624 20.6907C148.324 21.7407 148.71 22.9737 148.782 24.3896H143.985C143.85 23.4748 143.492 22.739 142.911 22.1822C142.339 21.6174 141.587 21.335 140.656 21.335C139.869 21.335 139.181 21.5498 138.592 21.9793C138.011 22.4009 137.558 23.0174 137.232 23.8288C136.906 24.6401 136.743 25.6225 136.743 26.7759C136.743 27.9453 136.902 28.9396 137.22 29.7589C137.546 30.5782 138.003 31.2026 138.592 31.6322C139.181 32.0617 139.869 32.2765 140.656 32.2765C141.237 32.2765 141.758 32.1572 142.219 31.9186C142.689 31.6799 143.074 31.3339 143.377 30.8805C143.687 30.4191 143.89 29.8663 143.985 29.222H148.782C148.702 30.622 148.32 31.8549 147.636 32.9208C146.96 33.9788 146.026 34.8061 144.832 35.4026C143.639 35.9992 142.227 36.2975 140.597 36.2975ZM157.262 36.2856C156.093 36.2856 155.051 36.0828 154.136 35.6771C153.221 35.2634 152.498 34.6549 151.965 33.8515C151.44 33.0401 151.177 32.0299 151.177 30.8208C151.177 29.8026 151.364 28.9475 151.738 28.2555C152.112 27.5634 152.621 27.0066 153.265 26.585C153.91 26.1634 154.641 25.8453 155.461 25.6305C156.288 25.4157 157.155 25.2646 158.062 25.1771C159.128 25.0657 159.987 24.9623 160.639 24.8668C161.291 24.7634 161.765 24.6123 162.059 24.4134C162.353 24.2146 162.5 23.9203 162.5 23.5305V23.4589C162.5 22.7032 162.262 22.1186 161.785 21.7049C161.315 21.2913 160.647 21.0845 159.78 21.0845C158.865 21.0845 158.137 21.2873 157.596 21.693C157.056 22.0907 156.698 22.5918 156.523 23.1964L151.821 22.8146C152.06 21.7009 152.529 20.7384 153.229 19.9271C153.929 19.1078 154.832 18.4793 155.938 18.0418C157.052 17.5964 158.34 17.3737 159.804 17.3737C160.822 17.3737 161.796 17.493 162.727 17.7316C163.666 17.9703 164.497 18.3401 165.221 18.8413C165.953 19.3424 166.529 19.9867 166.951 20.7742C167.373 21.5538 167.583 22.4884 167.583 23.5782V35.9396H162.763V33.3981H162.62C162.325 33.9708 161.932 34.4759 161.439 34.9134C160.945 35.343 160.353 35.6811 159.661 35.9276C158.969 36.1663 158.169 36.2856 157.262 36.2856ZM158.718 32.7776C159.466 32.7776 160.126 32.6305 160.699 32.3362C161.271 32.0339 161.721 31.6282 162.047 31.1191C162.373 30.61 162.536 30.0333 162.536 29.389V27.4441C162.377 27.5475 162.158 27.643 161.88 27.7305C161.61 27.81 161.303 27.8856 160.961 27.9572C160.619 28.0208 160.277 28.0805 159.935 28.1362C159.593 28.1839 159.283 28.2276 159.004 28.2674C158.408 28.3549 157.887 28.4941 157.441 28.685C156.996 28.8759 156.65 29.1345 156.403 29.4606C156.157 29.7788 156.033 30.1765 156.033 30.6538C156.033 31.3458 156.284 31.8748 156.785 32.2407C157.294 32.5987 157.939 32.7776 158.718 32.7776Z" fill="#444444"/>
</svg>
